# Blender 4.1.0
# www.blender.org
o Circle
v 1.000000 0.000000 0.000000
v 0.980785 0.195090 0.000000
v 0.923880 0.382683 0.000000
v 0.831470 0.555570 0.000000
v 0.707107 0.707107 0.000000
v 0.555570 0.831470 0.000000
v 0.382683 0.923880 0.000000
v 0.195090 0.980785 0.000000
v 0.000000 1.000000 0.000000
v -0.195090 0.980785 0.000000
v -0.382683 0.923880 0.000000
v -0.555570 0.831470 0.000000
v -0.707107 0.707107 0.000000
v -0.831470 0.555570 0.000000
v -0.923880 0.382683 0.000000
v -0.980785 0.195090 0.000000
v -1.000000 0.000000 0.000000
v -0.980785 -0.195090 0.000000
v -0.923880 -0.382683 0.000000
v -0.831470 -0.555570 0.000000
v -0.707107 -0.707107 0.000000
v -0.555570 -0.831470 0.000000
v -0.382683 -0.923880 0.000000
v -0.195090 -0.980785 0.000000
v 0.000000 -1.000000 0.000000
v 0.195090 -0.980785 0.000000
v 0.382683 -0.923880 0.000000
v 0.555570 -0.831470 0.000000
v 0.707107 -0.707107 0.000000
v 0.831470 -0.555570 0.000000
v 0.923880 -0.382683 0.000000
v 0.980785 -0.195090 0.000000
v 1.000000 0.000000 1.000000
v 0.980785 0.195090 1.000000
v 0.923880 0.382683 1.000000
v 0.831470 0.555570 1.000000
v 0.707107 0.707107 1.000000
v 0.555570 0.831470 1.000000
v 0.382683 0.923880 1.000000
v 0.195090 0.980785 1.000000
v 0.000000 1.000000 1.000000
v -0.195090 0.980785 1.000000
v -0.382683 0.923880 1.000000
v -0.555570 0.831470 1.000000
v -0.707107 0.707107 1.000000
v -0.831470 0.555570 1.000000
v -0.923880 0.382683 1.000000
v -0.980785 0.195090 1.000000
v -1.000000 0.000000 1.000000
v -0.980785 -0.195090 1.000000
v -0.923880 -0.382683 1.000000
v -0.831470 -0.555570 1.000000
v -0.707107 -0.707107 1.000000
v -0.555570 -0.831470 1.000000
v -0.382683 -0.923880 1.000000
v -0.195090 -0.980785 1.000000
v 0.000000 -1.000000 1.000000
v 0.195090 -0.980785 1.000000
v 0.382683 -0.923880 1.000000
v 0.555570 -0.831470 1.000000
v 0.707107 -0.707107 1.000000
v 0.831470 -0.555570 1.000000
v 0.923880 -0.382683 1.000000
v 0.980785 -0.195090 1.000000
vn -0.0000 -0.0000 -1.0000
vn -0.0000 -0.0000 1.0000
vn 0.4714 -0.8819 -0.0000
vn -0.8819 0.4714 -0.0000
vn 0.9952 0.0980 -0.0000
vn 0.6344 -0.7730 -0.0000
vn -0.9569 0.2903 -0.0000
vn 0.9569 0.2903 -0.0000
vn 0.7730 -0.6344 -0.0000
vn -0.9952 0.0980 -0.0000
vn 0.8819 0.4714 -0.0000
vn 0.8819 -0.4714 -0.0000
vn -0.9952 -0.0980 -0.0000
vn 0.7730 0.6344 -0.0000
vn 0.9569 -0.2903 -0.0000
vn -0.9569 -0.2903 -0.0000
vn 0.6344 0.7730 -0.0000
vn 0.9952 -0.0980 -0.0000
vn -0.8819 -0.4714 -0.0000
vn 0.4714 0.8819 -0.0000
vn -0.7730 -0.6344 -0.0000
vn 0.2903 0.9569 -0.0000
vn -0.6344 -0.7730 -0.0000
vn 0.0980 0.9952 -0.0000
vn -0.4714 -0.8819 -0.0000
vn -0.0980 0.9952 -0.0000
vn -0.2903 -0.9569 -0.0000
vn -0.2903 0.9569 -0.0000
vn -0.0980 -0.9952 -0.0000
vn -0.4714 0.8819 -0.0000
vn 0.0980 -0.9952 -0.0000
vn -0.6344 0.7730 -0.0000
vn 0.2903 -0.9569 -0.0000
vn -0.7730 0.6344 -0.0000
s 0
f 19//1 11//1 3//1
f 49//2 57//2 33//2
f 28//3 59//3 27//3
f 15//4 46//4 14//4
f 2//5 33//5 1//5
f 29//6 60//6 28//6
f 16//7 47//7 15//7
f 3//8 34//8 2//8
f 30//9 61//9 29//9
f 17//10 48//10 16//10
f 4//11 35//11 3//11
f 31//12 62//12 30//12
f 18//13 49//13 17//13
f 5//14 36//14 4//14
f 32//15 63//15 31//15
f 19//16 50//16 18//16
f 6//17 37//17 5//17
f 1//18 64//18 32//18
f 20//19 51//19 19//19
f 7//20 38//20 6//20
f 21//21 52//21 20//21
f 8//22 39//22 7//22
f 22//23 53//23 21//23
f 9//24 40//24 8//24
f 23//25 54//25 22//25
f 10//26 41//26 9//26
f 24//27 55//27 23//27
f 11//28 42//28 10//28
f 25//29 56//29 24//29
f 12//30 43//30 11//30
f 26//31 57//31 25//31
f 13//32 44//32 12//32
f 27//33 58//33 26//33
f 14//34 45//34 13//34
f 3//1 2//1 1//1
f 1//1 32//1 31//1
f 31//1 30//1 29//1
f 29//1 28//1 27//1
f 27//1 26//1 25//1
f 25//1 24//1 23//1
f 23//1 22//1 21//1
f 21//1 20//1 19//1
f 19//1 18//1 17//1
f 17//1 16//1 15//1
f 15//1 14//1 13//1
f 13//1 12//1 11//1
f 11//1 10//1 9//1
f 9//1 8//1 7//1
f 7//1 6//1 5//1
f 5//1 4//1 3//1
f 3//1 1//1 31//1
f 31//1 29//1 27//1
f 27//1 25//1 23//1
f 23//1 21//1 19//1
f 19//1 17//1 15//1
f 15//1 13//1 11//1
f 11//1 9//1 7//1
f 7//1 5//1 3//1
f 3//1 31//1 27//1
f 27//1 23//1 19//1
f 19//1 15//1 11//1
f 11//1 7//1 3//1
f 3//1 27//1 19//1
f 33//2 34//2 35//2
f 35//2 36//2 37//2
f 37//2 38//2 39//2
f 39//2 40//2 41//2
f 41//2 42//2 43//2
f 43//2 44//2 45//2
f 45//2 46//2 47//2
f 47//2 48//2 49//2
f 49//2 50//2 51//2
f 51//2 52//2 53//2
f 53//2 54//2 55//2
f 55//2 56//2 57//2
f 57//2 58//2 59//2
f 59//2 60//2 61//2
f 61//2 62//2 63//2
f 63//2 64//2 33//2
f 33//2 35//2 37//2
f 37//2 39//2 41//2
f 41//2 43//2 45//2
f 45//2 47//2 49//2
f 49//2 51//2 53//2
f 53//2 55//2 57//2
f 57//2 59//2 61//2
f 61//2 63//2 33//2
f 33//2 37//2 41//2
f 41//2 45//2 49//2
f 49//2 53//2 57//2
f 57//2 61//2 33//2
f 33//2 41//2 49//2
f 28//3 60//3 59//3
f 15//4 47//4 46//4
f 2//5 34//5 33//5
f 29//6 61//6 60//6
f 16//7 48//7 47//7
f 3//8 35//8 34//8
f 30//9 62//9 61//9
f 17//10 49//10 48//10
f 4//11 36//11 35//11
f 31//12 63//12 62//12
f 18//13 50//13 49//13
f 5//14 37//14 36//14
f 32//15 64//15 63//15
f 19//16 51//16 50//16
f 6//17 38//17 37//17
f 1//18 33//18 64//18
f 20//19 52//19 51//19
f 7//20 39//20 38//20
f 21//21 53//21 52//21
f 8//22 40//22 39//22
f 22//23 54//23 53//23
f 9//24 41//24 40//24
f 23//25 55//25 54//25
f 10//26 42//26 41//26
f 24//27 56//27 55//27
f 11//28 43//28 42//28
f 25//29 57//29 56//29
f 12//30 44//30 43//30
f 26//31 58//31 57//31
f 13//32 45//32 44//32
f 27//33 59//33 58//33
f 14//34 46//34 45//34
